<?xml version="1.0" encoding="UTF-8"?>
<svg width="1200pt" height="1200pt" version="1.1" viewBox="0 0 1200 1200" xmlns="http://www.w3.org/2000/svg">
 <path d="m916.89 82.531c-37.637 26.449-36.652 65.027-10.832 89.516 19.816-32.414-6.043-40.539 5.4961-70.719-8.0859 31.473 15.539 38.301 0 70.719 41.051-18.09 6.3594-67.539 5.375-89.516z" fill-rule="evenodd"/>
 <path d="m1008.2 168.79c-37.125-27.156-73.348-13.891-88.297 18.406 37.047 8.3984 36.457-18.68 68.754-17.426-32.375 2.4336-31.316 27-66.988 22.645 30.297 33.121 66.008-15.617 86.531-23.586z" fill-rule="evenodd"/>
 <path d="m992.2 237.43c-25.039-38.578-63.652-39.008-89.082-14.168 31.629 20.996 40.734-4.5117 70.441 8.0859-31.121-9.2227-38.852 14.129-70.68-2.6289 16.562 41.715 67.266 8.8281 89.281 8.6719z" fill-rule="evenodd"/>
 <path d="m842.18 97.051c-22.211 40.266-4.3945 74.523 29.512 85.238 3.6094-37.832-23.191-33.789-26.098-65.969 6.5547 31.828 30.805 27.629 31.043 63.574 29-34.262-23.898-63.496-34.457-82.844z" fill-rule="evenodd"/>
 <path d="m775.14 125.5c-12.086 44.387 13.305 73.465 48.781 75.82-5.4141-37.594-30.531-27.312-40.891-57.926 13.852 29.355 36.418 19.543 45.129 54.43 20.094-40.105-38.223-56.039-53.02-72.328z" fill-rule="evenodd"/>
 <path d="m1055 307.79c-37.125-27.156-73.348-13.891-88.297 18.406 37.047 8.3984 36.457-18.68 68.754-17.426-32.375 2.4336-31.316 27-66.988 22.645 30.297 33.121 66.008-15.617 86.531-23.586z" fill-rule="evenodd"/>
 <path d="m1019.4 391.57c-41.363 20.133-74.641 0.58984-83.59-33.867 37.949-1.6484 32.531 24.918 64.516 29.434-31.434-8.1641-25.98-32.141-61.887-34.219 35.711-27.195 62.164 27.117 80.961 38.656z" fill-rule="evenodd"/>
 <path d="m940.25 440.83c-44.426-11.93-56.746-48.504-40.93-80.371 29.746 23.625 8.2422 40.148 29.434 64.516-18.367-26.766 1.4531-41.324-24.293-66.441 44.777 2.9023 29.16 61.258 35.789 82.254z" fill-rule="evenodd"/>
 <path d="m962.61 251.32c-45.875 3.0234-65.105 36.496-55.805 70.836 33.789-17.387 15.934-37.754 41.441-57.531-23.23 22.684-6.6328 40.812-36.773 60.395 44.465 5.9258 40.539-54.391 51.137-73.699z" fill-rule="evenodd"/>
 <path d="m780.13 305.95c4.75-45.758 38.93-63.691 72.875-53.098-18.641 33.082-38.34 14.48-59.062 39.242 23.547-22.367 41.051-5.1016 61.77-34.457 4.1992 44.66-55.883 38.461-75.582 48.309z" fill-rule="evenodd"/>
 <path d="m742.46 228.87c27.824-36.613 66.363-34.219 89.867-7.5352-33.121 18.602-40.266-7.5352-70.875 2.8633 31.75-6.9062 37.715 16.953 70.68 2.6289-19.582 40.383-67.734 3.8477-89.672 2.0391z" fill-rule="evenodd"/>
 <path d="m295.47 47.918c-12.047 44.387 13.305 73.465 48.781 75.82-5.4141-37.594-30.531-27.312-40.93-57.926 13.891 29.355 36.418 19.543 45.129 54.43 20.055-40.148-38.223-56.039-53.02-72.367z" fill-rule="evenodd"/>
 <path d="m420.77 56.039c-45.914 2.7461-65.34 36.105-56.238 70.48 33.867-17.148 16.129-37.676 41.793-57.297-23.391 22.527-6.8672 40.773-37.125 60.199 44.465 6.1602 40.852-54.156 51.566-73.387z" fill-rule="evenodd"/>
 <path d="m452.29 119.07c-43.914-13.734-73.895 10.555-77.625 45.914 37.793-4.0039 28.453-29.473 59.414-38.734-29.863 12.754-20.879 35.672-56.078 43.09 39.363 21.543 57.414-36.105 74.289-50.27z" fill-rule="evenodd"/>
 <path d="m247.2 106.74c8.5938 45.168 44.148 60.16 77.113 46.777-21.348-31.395-39.441-11.184-62.164-34.102 25.352 20.289 41.324 1.6094 64.438 29.117 0.43359-44.895-58.906-33.594-79.352-41.793z" fill-rule="evenodd"/>
 <path d="m267.13 181.43c19.035 41.875 57.141 48.074 85.984 27.234-28.176-25.469-40.93-1.5703-68.441-18.484 29.395 13.734 40.539-8.2031 69.461 13.109-10.164-43.719-65.184-18.758-87.004-21.859z" fill-rule="evenodd"/>
 <path d="m305.67 293.15c-1.9609-45.953 29.238-68.676 64.359-63.145-13.617 35.477-35.828 19.898-52.703 47.445 20.016-25.547 39.832-10.988 56.078-43.09 10.676 43.602-49.684 46.191-67.734 58.789z" fill-rule="evenodd"/>
 <path d="m510.72 95.598c-45.914 2.7461-65.34 36.105-56.238 70.48 33.867-17.148 16.129-37.676 41.793-57.297-23.391 22.527-6.8672 40.773-37.125 60.199 44.465 6.1602 40.852-54.156 51.566-73.387z" fill-rule="evenodd"/>
 <path d="m542.16 204.03c-27.824-36.613-66.363-34.219-89.867-7.5352 33.121 18.602 40.266-7.5352 70.875 2.8633-31.75-6.9062-37.715 16.953-70.68 2.6289 19.582 40.383 67.734 3.8477 89.672 2.0391z" fill-rule="evenodd"/>
 <path d="m763.92 64.594c-43.602 14.676-53.645 51.918-35.867 82.766 28.215-25.43 5.7305-40.578 25.352-66.242-16.68 27.863 4.043 41.168-20.094 67.812 44.543-5.6523 25.273-62.945 30.609-84.297z" fill-rule="evenodd"/>
 <path d="m673.46 85.828c-25.352 38.379-10.32 73.934 22.645 87.277 6.5938-37.398-20.445-35.516-20.762-67.812 4.0039 32.219 28.492 29.941 25.863 65.812 31.629-31.867-18.797-65.184-27.746-85.316z" fill-rule="evenodd"/>
 <path d="m643.13 137.51c37.793 26.215 37.047 64.832 11.379 89.477-20.016-32.297 5.8086-40.578-5.8867-70.68 8.2422 31.395-15.344 38.379 0.43359 70.719-41.207-17.855-6.75-67.5-5.8867-89.516z" fill-rule="evenodd"/>
 <path d="m571.71 122.32c44.973 9.6523 59.141 45.562 44.973 78.176-30.887-22.094-10.281-39.676-32.652-62.945 19.699 25.785 0.62891 41.363 27.629 65.105-44.855-0.58984-32.219-59.691-39.91-80.332z" fill-rule="evenodd"/>
 <path d="m520.57 233.34c25.039-38.578 63.652-39.047 89.082-14.168-31.629 20.996-40.734-4.5117-70.441 8.0859 31.121-9.2227 38.852 14.129 70.68-2.6289-16.562 41.715-67.266 8.8281-89.281 8.6719z" fill-rule="evenodd"/>
 <path d="m581.95 320.58c-11.105-44.621 14.875-73.152 50.43-74.758-6.2383 37.477-31.121 26.688-42.148 57.02 14.48-29.078 36.852-18.758 46.309-53.449 19.191 40.539-39.441 55.176-54.59 71.188z" fill-rule="evenodd"/>
 <path d="m122.01 496.71c19.035 41.875 57.141 48.074 85.984 27.234-28.176-25.469-40.93-1.5703-68.441-18.484 29.395 13.734 40.539-8.2031 69.461 13.109-10.164-43.719-65.184-18.758-87.004-21.859z" fill-rule="evenodd"/>
 <path d="m223.69 423.01c-33.594 31.434-27.234 69.5 1.7266 90.145 15.109-34.848-11.617-39.281-4.3945-70.797-3.6094 32.258 20.723 35.75 9.8125 70.051 38.145-23.625-3.1016-67.773-7.1406-89.398z" fill-rule="evenodd"/>
 <path d="m303.43 425.01c-42.539 17.426-50.152 55.293-30.414 84.883 26.527-27.195 3.1016-40.852 21.035-67.734-14.836 28.883 6.6719 40.812-15.699 68.953 44.07-8.5156 21.152-64.438 25.078-86.102z" fill-rule="evenodd"/>
 <path d="m158.23 599.8c45.562 6.1992 71.109-22.723 68.871-58.238-36.574 10.242-23.152 33.828-52.117 48.113 27.312-17.582 14.676-38.656 48.113-51.801-42.383-14.715-50.586 45.168-64.832 61.965z" fill-rule="evenodd"/>
 <path d="m227.22 616.4c44.855-10.281 58.512-46.348 43.875-78.801-30.609 22.527-9.7344 39.832-31.789 63.379 19.348-26.059 0.078125-41.363 26.727-65.457-44.855 1.2148-31.395 60.121-38.812 80.883z" fill-rule="evenodd"/>
 <path d="m228.12 664.91c45.562 6.1992 71.109-22.723 68.871-58.238-36.574 10.242-23.152 33.828-52.117 48.113 27.312-17.582 14.676-38.656 48.113-51.801-42.383-14.715-50.586 45.168-64.832 61.965z" fill-rule="evenodd"/>
 <path d="m327.61 678.02c34.34-30.57 28.961-68.793 0.55078-90.184-15.973 34.457 10.637 39.559 2.6289 70.875 4.3945-32.18-19.855-36.262-8.0859-70.246-38.734 22.645 1.4141 67.812 4.9062 89.555z" fill-rule="evenodd"/>
 <path d="m255.91 372.03c19.035 41.875 57.141 48.074 85.984 27.234-28.176-25.469-40.93-1.5703-68.441-18.484 29.395 13.734 40.539-8.2031 69.461 13.109-10.164-43.719-65.184-18.758-87.004-21.859z" fill-rule="evenodd"/>
 <path d="m296.61 338.68c38.656 24.879 74.055 9.457 87.043-23.625-37.477-6.1602-35.281 20.84-67.578 21.504 32.18-4.3555 29.629-28.844 65.5-26.605-32.219-31.238-64.949 19.543-84.965 28.727z" fill-rule="evenodd"/>
 <path d="m392.28 387.85c-18.129-42.266 2.9414-74.602 37.793-81.902-0.15625 37.988-26.41 31.316-32.453 63.066 9.6523-31.004 33.355-24.41 37.125-60.199 25.469 36.969-30.062 60.828-42.422 79.039z" fill-rule="evenodd"/>
 <path d="m328.98 435.73c44.973 9.6523 59.141 45.562 44.973 78.176-30.887-22.094-10.281-39.676-32.652-62.945 19.699 25.824 0.62891 41.363 27.629 65.105-44.855-0.58984-32.219-59.691-39.91-80.332z" fill-rule="evenodd"/>
 <path d="m456.33 434.08c37.477-26.688 36.262-65.262 10.32-89.594-19.621 32.531 6.2773 40.5-5.0625 70.758 7.8867-31.512-15.777-38.223-0.43359-70.719-40.969 18.328-5.9648 67.578-4.8281 89.555z" fill-rule="evenodd"/>
 <path d="m215.64 260.82c34.219 30.727 71.621 21.074 89.672-9.5352-36.027-12.047-38.145 14.992-70.129 10.555 32.453 0.78516 33.828-23.781 68.914-15.895-26.844-35.988-67.227 8.9883-88.457 14.914z" fill-rule="evenodd"/>
 <path d="m200.26 331.93c38.656 24.918 74.055 9.4961 87.043-23.625-37.477-6.1602-35.281 20.84-67.578 21.543 32.18-4.3555 29.629-28.844 65.5-26.605-32.219-31.238-64.949 19.543-84.965 28.727z" fill-rule="evenodd"/>
 <path d="m594.94 34.848c44.973 9.6523 59.141 45.562 44.973 78.176-30.887-22.094-10.281-39.676-32.652-62.945 19.699 25.785 0.62891 41.363 27.629 65.105-44.855-0.58984-32.219-59.691-39.91-80.332z" fill-rule="evenodd"/>
 <path d="m540.43 82.531c-33.633 31.355-27.391 69.422 1.4922 90.184 15.188-34.809-11.539-39.324-4.2383-70.797-3.6875 32.258 20.641 35.828 9.6523 70.051 38.223-23.547-2.9414-67.773-6.9062-89.438z" fill-rule="evenodd"/>
 <path d="m149.25 372.03c19.035 41.875 57.141 48.074 85.984 27.234-28.176-25.469-40.93-1.5703-68.441-18.484 29.395 13.734 40.539-8.2031 69.461 13.109-10.164-43.719-65.184-18.758-87.004-21.859z" fill-rule="evenodd"/>
 <path d="m829.97 38.027c-43.602 14.676-53.645 51.918-35.867 82.766 28.215-25.43 5.7305-40.578 25.352-66.242-16.68 27.863 4.043 41.168-20.094 67.812 44.543-5.6523 25.273-62.945 30.609-84.297z" fill-rule="evenodd"/>
 <path d="m1080.5 248.18c-37.125-27.156-73.348-13.891-88.297 18.406 37.047 8.3984 36.457-18.68 68.754-17.426-32.375 2.4336-31.316 27-66.988 22.645 30.297 33.121 66.008-15.617 86.531-23.586z" fill-rule="evenodd"/>
 <path d="m884.52 486.11c-44.426-11.93-56.746-48.504-40.93-80.371 29.746 23.625 8.2422 40.148 29.434 64.516-18.367-26.766 1.4531-41.324-24.293-66.441 44.777 2.9023 29.16 61.258 35.789 82.254z" fill-rule="evenodd"/>
 <path d="m975.45 508.25c-44.777 10.516-72.953-15.855-74.094-51.41 37.398 6.7109 26.254 31.473 56.473 42.895-28.844-14.914-18.25-37.086-52.824-47.016 40.812-18.68 54.668 40.148 70.441 55.531z" fill-rule="evenodd"/>
 <path d="m1029.2 470.02c-44.777 10.516-72.953-15.855-74.094-51.41 37.398 6.7109 26.254 31.473 56.473 42.895-28.844-14.914-18.25-37.086-52.824-47.016 40.812-18.68 54.668 40.148 70.441 55.531z" fill-rule="evenodd"/>
 <path d="m1107.7 373.17c-37.125 27.156-73.348 13.891-88.297-18.406 37.047-8.3984 36.457 18.68 68.754 17.426-32.375-2.4336-31.316-27-66.988-22.645 30.297-33.121 66.008 15.617 86.531 23.586z" fill-rule="evenodd"/>
 <path d="m763.92 308.81c-43.602 14.676-53.645 51.918-35.867 82.766 28.215-25.43 5.7305-40.578 25.352-66.242-16.68 27.863 4.043 41.168-20.094 67.812 44.543-5.6523 25.273-62.945 30.609-84.297z" fill-rule="evenodd"/>
 <path d="m772.09 270.94c-37.125-27.156-73.348-13.891-88.297 18.406 37.047 8.3984 36.457-18.68 68.754-17.426-32.375 2.4336-31.316 27-66.988 22.645 30.297 33.121 66.008-15.617 86.531-23.586z" fill-rule="evenodd"/>
 <path d="m453.3 10.988c-33.633 31.355-27.391 69.422 1.4922 90.184 15.188-34.809-11.539-39.324-4.2383-70.797-3.6875 32.258 20.641 35.828 9.6523 70.051 38.223-23.547-2.9414-67.773-6.9062-89.438z" fill-rule="evenodd"/>
 <path d="m549.81 6.3594c-45.914 2.7461-65.34 36.105-56.238 70.48 33.867-17.148 16.129-37.676 41.793-57.297-23.391 22.527-6.8672 40.773-37.125 60.199 44.465 6.1602 40.852-54.156 51.566-73.387z" fill-rule="evenodd"/>
 <path d="m676.41 0c43.602 14.676 53.645 51.918 35.867 82.766-28.215-25.43-5.7305-40.578-25.352-66.242 16.68 27.863-4.043 41.168 20.094 67.812-44.543-5.6523-25.273-62.945-30.609-84.297z" fill-rule="evenodd"/>
 <path d="m526.26 861.32c-14.953 58.004-81.629 34.379-128.64 55.453-81.391 36.496-201.4-28.293-293.04 60.355-39.48 38.223 22.801-16.562 88.258-19.898 2.3164-0.11719 10.398-0.78516 12.125-0.3125 4.8672 1.3359-0.55078 8.8281-1.9609 11.066-3.7656 6.0039-7.7695 12.008-12.008 17.699-4.1992 5.6133-8.75 12.363-12.363 18.445-2.3945 4.082-5.8086 12.363-7.2617 16.914-1.5312 4.7109-2.9414 9.3008-4.3945 14.012-3.1797 10.398-9.6523 15.777-15.188 24.488-0.47266 0.74609-4.9844 7.1406-2.9414 7.3398 1.3359 0.11719 5.375-6.7891 6.2383-8.0469 5.1406-7.4961 10.637-11.891 14.051-20.996 2.5508-6.8281 4.3945-13.891 7.418-20.602 2.8633-6.3594 4.7891-10.242 9.0273-15.934 3.9648-5.2578 7.1797-9.3789 11.695-14.246 4.1211-4.4336 7.3398-8.6328 11.812-12.949 7.0234-6.75 16.875-14.48 26.41-16.914 7.457-1.9219 12.008-2.9844 19.855-2.5898 9.418 0.51172 25.586 0 31.828 8.3594 5.8867 8.4375-1.1758 26.371-4.3555 34.887-5.1016 13.656-10.832 27.039-16.797 40.344-1.8438 4.1211-3.375 7.7695-5.4141 11.852-3.3359 6.6719-6.5938 11.695-11.066 17.66-8.0469 10.715-17.738 20.016-26.449 30.141-1.5312 1.7656-7.9648 9.457-7.6133 11.422 0.19531 1.0586 1.0977 1.0586 1.8438 0.23437 3.2969-3.5703 6.043-7.5742 9.4961-11.262 14.09-15.031 28.648-27.746 40.93-44.621 2.3555-3.2578 4.082-5.6133 6.1602-9.0273 5.375-8.6719 11.969-16.875 17.895-25.273 8.6719-12.441 17.348-25.547 25.078-38.578 12.48-20.641 42.227-24.371 64.047-26.449 2.4727-0.23438 13.656-1.375 15.266-1.1758 5.375 0.58984 1.2148 9.2227-0.27344 11.734-4.7891 8.125-10.832 13.852-17.109 20.641-1.4531 1.5703-8.3984 9.7734-7.1016 11.773 1.8828 2.9414 7.8867-4.6289 9.3008-6.043 3.4141-3.4922 7.9258-7.1016 11.656-10.438 3.5312-3.1797 6.5938-5.8086 9.9688-9.2227 4.9453-5.0625 8.0859-8.5156 12.402-14.129 5.6523-7.3789 6.5547-6.1992 14.754-7.5742 19.977-3.375 41.598-7.457 61.77-8.75 2.3555-0.15625 24.449-1.9609 18.25 5.5352l-0.27344 0.3125c-13.734 12.676-27.234 25.586-40.461 38.773-3.4141 3.375-8.5938 6.082-12.715 8.7109-9.2617 5.9258-17.543 8.9883-28.414 10.281-9.3789 1.1367-18.172 1.375-27.59 1.8828-8.3203 0.43359-17.621 3.4922-24.918 7.418-5.6914 3.0625-7.9648 4.2773-13.109 8.3594-4.5508 3.6094-8.3594 6.9844-12.676 10.754-0.98047 0.82422-6.0039 4.6719-6.1211 5.6523-0.15625 1.5312 2.3945 0.39062 3.0625 0 4.1992-2.5117 9.8516-7.9258 14.09-11.184 5.4531-4.1992 8.5938-6.3984 14.875-9.418 7.2617-3.4922 12.949-5.375 21.113-6.043 4.6289-0.39063 13.617 0.3125 18.445 0.66797 3.4141 0.27344 20.406 1.0977 20.211 5.4531-0.078125 2.2773-7.2617 8.6719-9.1445 10.516-23.191 22.566-45.562 40.305-72.328 58.512-2.2383 1.4922-4.4727 2.9844-6.7109 4.5117-5.7305 3.8086-10.555 7.3398-15.934 11.578-4.75 3.6875-7.0625 5.375-12.48 8.2031-4.1992 2.1992-7.3398 3.5703-11.617 5.4531-5.1406 2.2383-11.93 5.6523-16.285 9.1836-4.6719 3.7656-9.418 8.0469-14.012 12.008-0.23438 0.23438-4.7109 3.9648-3.6484 4.2773 1.2539 0.39062 16.051-11.93 18.328-13.578 8.9492-6.5547 19.426-8.7109 29.785-11.969 6.2773-1.9609 9.5742-2.9023 15.461-5.9258 4.9453-2.5117 8.7891-4.6289 13.973-6.6719 8.3984-3.2578 16.641-6.9844 24.762-10.832 7.1016-3.3359 11.969-7.5742 11.695 4.4727-0.11719 5.6133-2.0391 12.559-2.707 18.367-0.82422 7.418-0.98047 15.031 0.66797 22.367 1.5703 7.1016 4.1992 12.48 6.1992 19.27 1.6484 5.4531 1.6875 10.438 2.9414 15.617 0.94141 3.9648 2.9414 3.5703 2.8633 0.078125-0.11719-5.0234-1.1758-12.754-2.5117-17.621-3.4141-12.203-6.5156-17.305-4.9844-30.805 1.2148-10.793 3.7266-15.461 7.2227-25.156 4.0039-11.027 9.8125-22.289 19.543-29.238l1.1758-0.86328c3.4922-2.4336 17.855-13.148 20.801-6.9062 2.2383 4.75-2.3164 22.094-3.5703 27.902-1.375 6.5156-2.668 13.148-3.9648 19.66-1.4922 7.4961-2.9023 18.25-3.2969 25.824-0.58984 10.676 1.1758 17.543 4.2773 27.707 1.0195 3.375 2.3945 6.5156 3.4141 10.047 0.43359 1.4141 2.7461 11.812 5.4961 9.3008 2.5898-2.3555-2.5117-17.738-3.2578-21.348-3.2578-16.246-2.2383-22.879 2.5898-38.5 2.0781-6.8281 4.8281-13.422 7.0625-20.133 1.7266-5.2188 3.2188-11.617 4.7109-17.07 9.8906-36.301 22.801-66.203 54.391-89.043 2.8633-2.0781 16.953-11.422 19.621-11.422 3.6484-0.039063 3.6484 6.5156 3.4141 8.9492-0.62891 6.3594-2 12.598-2.9844 18.914-0.55078 3.5312-1.1367 6.7109-1.6094 10.32-0.78516 5.5352-1.375 11.5-1.8047 17.031-0.66797 8.5938-0.27344 14.715 2.4727 22.996 1.0195 3.0625 3.6484 8.5547 5.0625 11.539 3.0234 6.3984 6.2773 12.52 9.457 18.797 1.7266 3.4531 3.2969 7.4961 5.0234 10.754 1.4141 2.707 2.5508 1.2969 1.7266-1.3359-1.7656-5.6523-5.5352-12.559-8.1641-18.012-1.6094-3.2578-3.1797-6.8281-4.7109-10.164-1.4922-3.2969-3.2188-7.418-4.5117-10.793-2.2383-5.9648-2.8633-12.715-2.2773-19.035 0.62891-7.1797 2.1602-15.148 3.6484-22.172 0.78516-3.8086 2.2773-8.7891 3.4922-12.559 1.0977-3.4141 2.707-7.3789 4.0039-10.754 1.8047-4.7109 3.5703-8.3203 5.0234-13.305 1.5703-5.3359 4.4336-13.027 9.2227-16.168 18.719-12.285 32.73-26.332 45.68-44.387 18.328 0.58984 29.078 40.266 35.633 55.688 2 5.2969-6.9844 39.949-8.9883 48.387-3.4141 14.363-6.4375 28.059-8.9883 42.617-2.9023 16.719-12.125 25.547-22.172 38.184-4.043 5.1016-8.3984 9.6523-12.715 14.48-5.3359 5.8867-10.398 13.93-12.285 21.664-0.51172 2.1211-3.7266 14.598-3.6484 15.578 0.19531 1.8828 2.0391 0.86328 2.9023-0.70703 2.3945-4.3945 3.4922-12.949 5.8086-17.973 3.1797-6.8672 8.3984-12.91 13.93-17.973 5.375-4.9062 10.398-10.203 15.66-15.148 5.2188-4.9453 10.477-9.0664 15.461-14.363 1.1758-1.2539 6.1602-7.1016 7.0625-7.6133 5.0625-2.9023 17.504 11.461 20.211 15.383 4.2773 6.2383 8.3594 12.637 9.9297 20.133 2.1992 10.516 2.3945 25.43 2.7461 36.418 0.27344 9.4961 0.3125 19.035 0.66797 28.492 0 0.66797 0.078125 5.6133 1.7266 4.8672 1.0977-0.51172 0.82422-8.0859 0.82422-9.3398 0.11719-15.973 0.27344-32.453-0.23438-48.387-0.3125-9.5352-0.62891-16.441-4.5508-25.312-2.668-6.043-5.2188-11.5-8.5938-17.148-1.5703-2.668-3.1797-5.2969-4.75-7.9648-5.6133-9.418-6.043-18.836-2.7461-29.16 1.3359-4.1992 2.5117-8.4375 3.6875-12.637 2.4336-8.8672 5.9648-24.723 16.285-27.312 8.0859-1.8047 17.934 3.7656 24.801 7.6133 6.4375 3.5703 12.441 9.2227 17.738 14.324 7.8086 7.5742 15.227 18.328 17.934 28.961 2.7461 10.988 2.3555 22.527-2 33.004-3.7656 9.0664-7.0625 14.637-8.4375 24.762-0.35156 2.7852-1.6875 20.723-0.86328 22.25 0.66797 1.2539 1.7266 0.15625 2.1211-0.86328 1.0195-2.7461 1.5312-14.324 2.0391-18.328 1.6875-12.598 5.7695-17.543 10.949-28.215 3.7656-7.7305 5.1406-16.363 6.8672-24.723 2.3945-11.422 7.0625-5.0234 12.164 0.078125 4.6289 4.6719 9.2227 9.3398 13.773 14.051 5.8477 6.043 7.8477 7.418 10.477 15.699 2.0391 6.4375 3.4141 15.855 2.4727 22.605-1.2148 8.5156-4.3945 14.441-7.1016 22.328-1.4922 4.2773-2.668 7.3789-3.7656 11.852-1.7266 7.0625-2.4727 10.988-2.8633 18.328-0.19531 4.1602-0.27344 7.418-0.86328 11.578-0.11719 0.86328-1.4922 7.7305 0.78516 7.1797 2.9414-0.70703 4.0039-19.543 4.4336-22.684 1.3359-10.359 5.7305-21.23 10.555-30.453 2.1992-4.1992 4.043-7.5352 5.9648-11.969 0.86328-1.9609 3.7656-9.7344 4.5898-10.793 4.5898-5.8867 14.09 3.2578 17.816 6.5156 5.6133 4.8281 9.9297 9.8906 16.285 13.812 4.4336 2.7461 9.0273 5.0234 13.5 7.6133 6.8281 3.9258 12.988 10.164 18.953 15.266 0.90234 0.78516 4.4727 3.7266 5.4141 1.7656 0.86328-1.8438-4.3555-6.5938-5.5742-7.8477-5.4531-5.6523-11.422-11.262-18.051-15.5-4.0039-2.5508-10.754-7.1016-13.973-10.477-3.1406-3.3359-7.1797-8.5156-9.9688-12.285-6.082-8.2422-10.203-15.699-15.461-24.41-6.7109-11.027-13.539-20.484-21.152-30.848-0.86328-1.1758-4.5898-5.9648-1.1758-6.5547 3.4141-0.62891 24.215 5.8086 29.238 7.0234 7.6523 1.8828 13.383 4.1211 20.328 7.8867 1.1758 0.66797 6.3984 3.6875 7.5352 2.3555 0.66797-0.78516-2.9023-2.3555-3.5703-2.7461-4.75-2.7852-8.5938-5.1406-13.695-7.3398-5.6914-2.3945-12.008-4.1602-17.934-6.2773-4.082-1.4531-8.6719-3.2578-12.637-4.9844-4.7109-2.0391-8.8281-4.8672-13.461-7.2617-8.5938-4.4336-16.992-8.9102-23.938-15.777-17.934-17.855-74.801-73.465-62.594-100.35l0.39062-0.90234c21.938 22.172 38.656 27.668 68.129 33.906 6.8281 1.4531 21.348 4.1211 26.961 6.9844 12.363 6.3164 24.527 18.129 29.512 31.199 4.0039 10.438 3.6875 20.133 4.6289 30.965 0.74609 8.7109 3.8867 13.461 7.7695 20.996 2.1992 4.2383 4.0039 2.1602 2.707-1.9609-2-6.1992-5.1016-9.4961-5.7305-16.875-0.35156-4.3945-0.11719-10.242-0.15625-14.797-0.078125-10.164-0.74609-16.875-2.9023-26.805-2.7461-12.559 3.1406-8.7891 10.398-4.9844 12.793 6.6719 25 14.402 37.086 22.25 7.2617 4.7109 13.027 10.516 19.191 16.484 7.418 7.1797 15.383 19.504 19.309 29 3.2969 8.0469 4.9453 26.098 2.6289 34.652-1.7266 6.2773-4.5898 11.027-6.082 17.387-1.1758 4.9844-1.6484 8.0859-2.1992 13.188-0.51172 4.5898-0.94141 8.3594-1.1758 13.027-0.19531 3.6094-2.4727 9.5742-2.2773 12.164 0.11719 1.8438 1.4141 1.9219 2.1602-0.15625 1.1758-3.1406 2.8633-8.9492 3.0625-12.242 0.35156-5.375 1.1758-11.184 2-16.562 1.0977-7.1016 2.8633-12.324 6.0039-18.719 3.8477-7.7695 4.75-13.461 5.2188-22.055 0.27344-5.4531 0.15625-13.578-0.27344-18.992-0.55078-6.6719-2.9844-15.617 6.9062-8.7891 5.9648 4.1211 11.773 8.125 17.895 12.086 9.2617 6.0039 17.973 14.797 26.41 22.094 8.7109 7.5352 16.324 12.402 27.629 15.07 4.8672 1.1367 10.516 1.4922 15.539 2.0781 2.2383 0.27344 8.2031 0.58984 10.359 0.15625 2-0.43359 1.5312-1.9609-0.66797-2.7461-3.5703-1.2539-13.617-2.3945-17.855-3.0234-11.852-1.7266-21.387-6.8281-29.824-15.266-7.457-7.418-14.246-15.031-22.055-22.172-3.9258-3.5703-8.0039-7.1016-11.461-11.066-8.5547-9.8516-17.148-19.699-25.703-29.551-15.699-18.051-31.434-36.105-47.133-54.156l-0.43359-0.51172c20.484-13.305 52.625-9.0273 75.152-4.043 6.5547 1.4531 12.164 5.5352 17.305 9.6914 5.2188 4.1992 11.891 10.754 15.266 16.523 6.9453 11.734 2.707 17.816 0.23437 29.746-1.5312 7.457-1.5312 12.91 2.0781 19.816 2.3945 4.5898 5.3359 9.0664 7.7695 13.773 0.62891 1.1758 2.8242 6.0039 3.8086 6.3594 1.7656 0.62891 1.2148-2.2773 0.98047-3.0625-1.8438-6.043-6.9062-13.066-9.3789-18.914-3.2969-7.8477-2-13.461 0.35156-21.23 2.8633-9.418 5.7305-13.066 3.7266-23.469-0.74609-3.8867-1.9609-7.1797-3.1016-10.871-3.0625-9.7344 4.7891-6.043 10.047-4.1992 8.8672 3.0625 17.738 6.3164 26.449 9.6523 5.2969 2.0391 10.555 6.75 12.637 12.047 2.9414 7.3789 2.7852 13.578 0.98047 21.152-1.4922 6.2383-3.4141 15.539-1.6875 21.664 1.5312 5.4961 4.8672 13.188 7.6523 18.129 3.0625 5.375 5.375 8.3984 9.1445 13.227 3.0625 3.9258 5.7695 8.125 8.5938 12.203 1.5703 2.3164 2.668 1.0977 1.8828-1.0977-1.4141-3.8867-8.5938-13.227-11.34-17.07-4.9062-6.9453-7.457-13.027-10.125-20.996-2.6289-7.8477-2.0391-11.422 0.27344-19.191 1.6094-5.375 3.6094-9.6914 5.0234-15.227 0.90234-3.6094 1.7266-10.555 4.9062-12.52 2.3945-1.4922 6.3984 1.2539 8.5547 2.5898 5.4531 3.2969 10.086 7.418 14.715 11.773 6.0039 5.6914 10.359 10.871 15.344 17.465 3.6484 4.7891 7.6914 9.7734 11.617 14.363 4.5898 5.375 8.75 8.8672 14.637 12.715 0.78516 0.51172 4.8281 3.7656 5.0234 1.1758 0.19531-2.4336-6.0039-6.3594-7.8477-8.0039-8.4375-7.6133-15.816-19.309-22.133-28.688-7.6523-11.422-20.094-23.938-31.004-32.414-7.1797-5.5742-12.988-10.32-20.84-15.109-58.59-35.906-150.11-40.148-217.69-46.582-101.09-20.879-141.95-108.43-160.94-200.81-0.94141-4.5117-0.94141-5.375-0.78516-9.7734 0-0.43359-0.11719-3.0234-0.11719-3.0234s0.86328-1.8828 1.0195-2.5898c0.98047-4.043-0.39062-9.9688 2.5898-12.715l0.51172-0.47266c2.9844-2.3164 8.1641-4.7109 11.695-6.4766 5.2969-2.6289 10.477-3.4141 15.422-5.6523 3.2969-1.5312 3.8867-3.8867 7.9648-5.8477 3.7266-1.7656 8.1641-3.4531 12.047-5.1797 9.7734-4.3164 19.387-8.9883 29.039-13.617 18.09-8.7109 33.867-14.324 53.254-19.898 21.703-6.2383 44.031-11.5 66.047-16.523 44.344-10.086 95.91-52.742 67.93-39.48-52.664 25-127.62 39.48-125.46 28.961 10.477-18.211 33.672-44.582 31.355-54.629-40.422 32.453-28.414 51.41-118.05 83.078-21.191 7.4961-43.441 13.109-64.832 13.891-10.793-161.33 123.93-173.81 205.68-273.53 37.555-45.875 153.88-53.883 100.93-52.863-113.26 2.1992-63.457 42.344-36.457-150.07l-21.781 62.164c-6.8281 14.598-72.836-74.801-40.188-24.527 13.148 20.25 41.953 24.918 18.129 82.414-47.328 114.24-220.94 176.01-233.34 172.44-17.148-4.9453-18.758-81.824 34.652-161.68 19.938-42.973 78.332-93.559 71.07-148.85-11.379 37.793-37.516 63.852-45.367 78.133-13.734 24.961-13.734 15.188-69.656-27.312l-0.51172 6.2773 32.258 29.551c19.074 33.438-20.133 73.621-52.664 105.37-43.48 42.422-31.629 6.3594-99.914-43.012-48.465-35.043-72.914-71.699-46.113-140.49-2.707-2.4727-6.043-1.1758-10.754 7.6914l-18.328 59.336c-21.113-18.129-71.344-62.945-62.555-94.066 1.2969-4.5898-64.398-4.6289 123.19 190.84 37.91 39.598 70.641 99.051 81.117 152.7 2.6289 13.539 3.7656 25.469 2.3555 39.242-1.3359 13.148-1.6094 26.488-2.9844 39.559-0.23438 2.2383-0.55078 4.3555-0.94141 6.5547-0.66797 3.8086-1.375 6.5156-2.3555 10.164-2.0781 7.7695-2.0391 12.988-0.70703 20.762 2.1992 12.793 1.8047 11.145-1.6484 0.35156-2.668-8.3984-2.3555-13.734-3.1016-22.016-0.35156-4.1602-0.3125-8.3984-0.27344-12.559 0.039063-4.8672 4.7891-13.773-1.2969-16.797-2.3555-1.1758-6.3984 0.23438-9.0273 0.62891-4.7109 0.66797-11.891-0.94141-16.836-1.6875-33.004-5.0234-64.832-8.8672-98.305-8.9883-14.715-0.039062-27.273-0.039062-42.031-1.8828-24.879-3.1406-51.645-9.6523-76.094-15.855-2.9844-0.74609-6.0039-1.5312-8.9883-2.2773-41.129-10.598-108.04 5.4531-77.82 5.7695 56.863 0.62891 124.8 20.996 116.59 29.668-19.465 12.047-54 25.863-58.395 36.145 51.84-11.656 54.078-34.496 144.14-23.391 52.98 6.5547 103.96 26.449 101.8 89.906-1.0977 32.453 22.094 117.81 0.39062 202.11z" fill-rule="evenodd"/>
 <path d="m1006.1 540.19c-10.359 44.816-46.465 58.434-78.84 43.758 22.566-30.57 39.832-9.6523 63.457-31.668-26.098 19.309-41.363 0-65.539 26.605 1.2969-44.855 60.16-31.277 80.922-38.656z" fill-rule="evenodd"/>
 <path d="m891.86 488.12c39.125 24.137 40.461 62.711 16.207 88.73-21.742-31.16 3.6094-40.812-9.6914-70.246 9.9297 30.926-13.227 39.164 4.2383 70.602-42.07-15.578-10.398-67.027-10.715-89.043z" fill-rule="evenodd"/>
 <path d="m814.11 505.86c45.168 8.7109 60.121 44.266 46.66 77.191-31.395-21.426-11.105-39.441-34.023-62.203 20.289 25.352 1.5312 41.324 29 64.477-44.855 0.35156-33.516-58.984-41.637-79.43z" fill-rule="evenodd"/>
 <path d="m991.07 648.43c-43.441 15.109-74.211-8.2031-79.039-43.441 37.871 2.8242 29.395 28.57 60.633 36.812-30.258-11.773-22.016-34.965-57.414-41.246 38.656-22.801 58.551 34.262 75.859 47.879z" fill-rule="evenodd"/>
 <path d="m933.42 692.7c-45.992-1.1758-66.52-33.867-58.59-68.52 34.457 16.012 17.387 37.086 43.719 55.844-24.137-21.742-8.2422-40.5-39.164-58.867 44.227-7.6914 42.656 52.703 54.039 71.582z" fill-rule="evenodd"/>
 <path d="m884.48 692.22c-43.441 15.109-74.211-8.2031-79.039-43.441 37.871 2.8242 29.395 28.57 60.594 36.812-30.219-11.812-22.016-35.004-57.414-41.285 38.656-22.801 58.551 34.262 75.859 47.879z" fill-rule="evenodd"/>
 <path d="m795.67 741.32c-39.715-23.191-41.992-61.691-18.406-88.297 22.488 30.609-2.5898 40.891 11.461 69.973-10.676-30.648 12.285-39.48-5.9648-70.441 42.461 14.52 12.047 66.754 12.91 88.77z" fill-rule="evenodd"/>
 <path d="m747.83 492.36c-16.68 42.855 5.4961 74.445 40.539 80.566-1.4531-37.949-27.473-30.414-34.574-61.926 10.676 30.648 34.141 23.273 39.164 58.867 24.215-37.793-32.102-59.73-45.09-77.547z" fill-rule="evenodd"/>
 <path d="m703.37 532.62c-16.68 42.855 5.4961 74.445 40.539 80.566-1.4531-37.949-27.473-30.414-34.574-61.926 10.676 30.648 34.141 23.273 39.164 58.867 24.215-37.793-32.102-59.73-45.09-77.547z" fill-rule="evenodd"/>
</svg>
