<?xml version="1.0" encoding="UTF-8"?>
<svg width="1200pt" height="1200pt" version="1.1" viewBox="0 0 1200 1200" xmlns="http://www.w3.org/2000/svg">
 <path d="m470.64 420.36c49.199-27.359 53.52-20.52 43.32-62.52-8.2812-34.32-26.762-59.039 20.039-70.559 34.078-8.3984 33.238 30.121 40.199 57.238 8.8789 34.32 15.359 32.398 67.078 31.559 45.84-0.71875 228.6 30.602 139.92 144.48 0 0 7.1992 23.641 23.879 95.398 16.68 71.641 26.52 163.92-41.281 230.52-44.52 43.801-34.32 39.48-49.199 68.52-6.7188 13.199-22.32 12.121-35.762 0.96094-13.441-11.16-42.961-13.559-61.078-16.32-18.121-2.7617-173.04-36.238-192.72-279.96 0 0-82.199-15.121-63.238-95.039 11.758-49.438 51.359-72.355 108.84-104.28z"/>
</svg>
