<?xml version="1.0" encoding="UTF-8"?>
<svg width="1200pt" height="1200pt" version="1.1" viewBox="0 0 1200 1200" xmlns="http://www.w3.org/2000/svg">
 <path d="m430.11 909.68c43.012 0 81.719 12.902 107.53 30.109 4.3008 0-4.3008 8.6016-12.902 17.203 8.6016-4.3008 12.902-4.3008 25.805-12.902 288.17-146.24-154.84-348.39-51.613-825.8 137.63 227.96-21.504 258.07 64.516 430.11 47.312 94.625 154.84 184.95 141.93 305.38-12.902 120.43-129.03 133.33-184.95 176.34 30.109 0 38.711 0 47.312 8.6016-30.109 21.504-90.324 43.012-137.63 43.012-86.023 0-154.84-38.711-154.84-86.023s68.816-86.023 154.84-86.023z" fill-rule="evenodd"/>
 <path d="m0 260.21c455.91-98.926 503.23 227.96 498.93 227.96-47.312-4.3008-60.215-64.516-146.24-98.926 68.816 43.012 90.324 103.23 137.63 129.03-210.75 172.04-296.77-141.93-490.32-258.07z" fill-rule="evenodd"/>
 <path d="m1200 187.1c-563.44 141.93-503.23 546.24-498.93 546.24 51.613-34.41 47.312-111.83 133.33-202.15-64.516 94.625-68.816 176.34-111.83 232.26 301.07 77.418 292.47-331.18 477.42-576.34z" fill-rule="evenodd"/>
</svg>
