<?xml version="1.0" encoding="UTF-8"?><svg id="Layer_1" xmlns="http://www.w3.org/2000/svg" viewBox="0 0 1200 963.44"><defs><style>.cls-1{fill-rule:evenodd;}</style></defs><path class="cls-1" d="M430.11,791.39c43.01,0,81.72,12.9,107.53,30.11,4.3,0-4.3,8.6-12.9,17.2,8.6-4.3,12.9-4.3,25.8-12.9C838.71,679.56,395.7,477.41,498.93,0c137.63,227.96-21.5,258.07,64.52,430.11,47.31,94.62,154.84,184.95,141.93,305.38-12.9,120.43-129.03,133.33-184.95,176.34,30.11,0,38.71,0,47.31,8.6-30.11,21.5-90.32,43.01-137.63,43.01-86.02,0-154.84-38.71-154.84-86.02s68.82-86.02,154.84-86.02h0Z"/><path class="cls-1" d="M0,141.92c455.91-98.93,503.23,227.96,498.93,227.96-47.31-4.3-60.21-64.52-146.24-98.93,68.82,43.01,90.32,103.23,137.63,129.03C279.57,572.02,193.55,258.05,0,141.91h0Z"/><path class="cls-1" d="M1200,68.81c-563.44,141.93-503.23,546.24-498.93,546.24,51.61-34.41,47.31-111.83,133.33-202.15-64.52,94.62-68.82,176.34-111.83,232.26,301.07,77.42,292.47-331.18,477.42-576.34h.01Z"/></svg>