<?xml version="1.0" encoding="UTF-8"?><svg id="Layer_1" xmlns="http://www.w3.org/2000/svg" viewBox="0 0 1015.45 1200.02"><defs><style>.cls-1{fill-rule:evenodd;}</style></defs><path class="cls-1" d="M824.64,82.53c-37.64,26.45-36.65,65.03-10.83,89.52,19.82-32.41-6.04-40.54,5.5-70.72-8.09,31.47,15.54,38.3,0,70.72,41.05-18.09,6.36-67.54,5.38-89.52h-.04Z"/><path class="cls-1" d="M915.95,168.79c-37.12-27.16-73.35-13.89-88.3,18.41,37.05,8.4,36.46-18.68,68.75-17.43-32.38,2.43-31.32,27-66.99,22.65,30.3,33.12,66.01-15.62,86.53-23.59v-.04Z"/><path class="cls-1" d="M899.95,237.43c-25.04-38.58-63.65-39.01-89.08-14.17,31.63,21,40.73-4.51,70.44,8.09-31.12-9.22-38.85,14.13-70.68-2.63,16.56,41.71,67.27,8.83,89.28,8.67l.04.04Z"/><path class="cls-1" d="M749.93,97.05c-22.21,40.27-4.39,74.52,29.51,85.24,3.61-37.83-23.19-33.79-26.1-65.97,6.55,31.83,30.8,27.63,31.04,63.57,29-34.26-23.9-63.5-34.46-82.84h0Z"/><path class="cls-1" d="M682.89,125.5c-12.09,44.39,13.3,73.46,48.78,75.82-5.41-37.59-30.53-27.31-40.89-57.93,13.85,29.35,36.42,19.54,45.13,54.43,20.09-40.1-38.22-56.04-53.02-72.33h0Z"/><path class="cls-1" d="M962.75,307.79c-37.12-27.16-73.35-13.89-88.3,18.41,37.05,8.4,36.46-18.68,68.75-17.43-32.38,2.43-31.32,27-66.99,22.64,30.3,33.12,66.01-15.62,86.53-23.59v-.04Z"/><path class="cls-1" d="M927.15,391.57c-41.36,20.13-74.64.59-83.59-33.87,37.95-1.65,32.53,24.92,64.52,29.43-31.43-8.16-25.98-32.14-61.89-34.22,35.71-27.2,62.16,27.12,80.96,38.66h0Z"/><path class="cls-1" d="M848,440.83c-44.43-11.93-56.75-48.5-40.93-80.37,29.75,23.62,8.24,40.15,29.43,64.52-18.37-26.77,1.45-41.32-24.29-66.44,44.78,2.9,29.16,61.26,35.79,82.25v.04Z"/><path class="cls-1" d="M870.36,251.32c-45.88,3.02-65.1,36.5-55.8,70.84,33.79-17.39,15.93-37.75,41.44-57.53-23.23,22.68-6.63,40.81-36.77,60.39,44.47,5.93,40.54-54.39,51.14-73.7h0Z"/><path class="cls-1" d="M687.88,305.95c4.75-45.76,38.93-63.69,72.88-53.1-18.64,33.08-38.34,14.48-59.06,39.24,23.55-22.37,41.05-5.1,61.77-34.46,4.2,44.66-55.88,38.46-75.58,48.31h0Z"/><path class="cls-1" d="M650.21,228.87c27.82-36.61,66.36-34.22,89.87-7.54-33.12,18.6-40.27-7.54-70.88,2.86,31.75-6.91,37.72,16.95,70.68,2.63-19.58,40.38-67.73,3.85-89.67,2.04h0Z"/><path class="cls-1" d="M203.22,47.92c-12.05,44.39,13.3,73.46,48.78,75.82-5.41-37.59-30.53-27.31-40.93-57.93,13.89,29.35,36.42,19.54,45.13,54.43,20.05-40.15-38.22-56.04-53.02-72.37l.04.04Z"/><path class="cls-1" d="M328.52,56.04c-45.91,2.75-65.34,36.1-56.24,70.48,33.87-17.15,16.13-37.68,41.79-57.3-23.39,22.53-6.87,40.77-37.12,60.2,44.46,6.16,40.85-54.16,51.57-73.39h0Z"/><path class="cls-1" d="M360.04,119.07c-43.91-13.73-73.89,10.56-77.62,45.91,37.79-4,28.45-29.47,59.41-38.73-29.86,12.75-20.88,35.67-56.08,43.09,39.36,21.54,57.41-36.1,74.29-50.27Z"/><path class="cls-1" d="M154.95,106.74c8.59,45.17,44.15,60.16,77.11,46.78-21.35-31.4-39.44-11.18-62.16-34.1,25.35,20.29,41.32,1.61,64.44,29.12.43-44.9-58.91-33.59-79.35-41.79h-.03Z"/><path class="cls-1" d="M174.88,181.43c19.04,41.88,57.14,48.07,85.98,27.23-28.18-25.47-40.93-1.57-68.44-18.48,29.39,13.73,40.54-8.2,69.46,13.11-10.16-43.72-65.18-18.76-87-21.86Z"/><path class="cls-1" d="M213.42,293.15c-1.96-45.95,29.24-68.68,64.36-63.15-13.62,35.48-35.83,19.9-52.7,47.44,20.02-25.55,39.83-10.99,56.08-43.09,10.68,43.6-49.68,46.19-67.73,58.79h0Z"/><path class="cls-1" d="M418.47,95.6c-45.91,2.75-65.34,36.11-56.24,70.48,33.87-17.15,16.13-37.68,41.79-57.3-23.39,22.53-6.87,40.77-37.12,60.2,44.46,6.16,40.85-54.16,51.57-73.39h0Z"/><path class="cls-1" d="M449.91,204.03c-27.82-36.61-66.36-34.22-89.87-7.54,33.12,18.6,40.27-7.54,70.88,2.86-31.75-6.91-37.71,16.95-70.68,2.63,19.58,40.38,67.73,3.85,89.67,2.04h0Z"/><path class="cls-1" d="M671.67,64.59c-43.6,14.68-53.65,51.92-35.87,82.77,28.22-25.43,5.73-40.58,25.35-66.24-16.68,27.86,4.04,41.17-20.09,67.81,44.54-5.65,25.27-62.94,30.61-84.3v-.04Z"/><path class="cls-1" d="M581.21,85.83c-25.35,38.38-10.32,73.93,22.65,87.28,6.59-37.4-20.45-35.52-20.76-67.81,4,32.22,28.49,29.94,25.86,65.81,31.63-31.87-18.8-65.18-27.75-85.32v.04Z"/><path class="cls-1" d="M550.88,137.51c37.79,26.21,37.05,64.83,11.38,89.48-20.02-32.3,5.81-40.58-5.89-70.68,8.24,31.4-15.34,38.38.43,70.72-41.21-17.85-6.75-67.5-5.89-89.52h-.04Z"/><path class="cls-1" d="M479.46,122.32c44.97,9.65,59.14,45.56,44.97,78.18-30.89-22.09-10.28-39.68-32.65-62.95,19.7,25.79.63,41.36,27.63,65.11-44.85-.59-32.22-59.69-39.91-80.33h-.04Z"/><path class="cls-1" d="M428.32,233.34c25.04-38.58,63.65-39.05,89.08-14.17-31.63,21-40.73-4.51-70.44,8.09,31.12-9.22,38.85,14.13,70.68-2.63-16.56,41.71-67.27,8.83-89.28,8.67l-.04.04Z"/><path class="cls-1" d="M489.7,320.58c-11.1-44.62,14.88-73.15,50.43-74.76-6.24,37.48-31.12,26.69-42.15,57.02,14.48-29.08,36.85-18.76,46.31-53.45,19.19,40.54-39.44,55.18-54.59,71.19h0Z"/><path class="cls-1" d="M29.76,496.71c19.03,41.87,57.14,48.07,85.98,27.23-28.18-25.47-40.93-1.57-68.44-18.48,29.4,13.73,40.54-8.2,69.46,13.11-10.16-43.72-65.18-18.76-87-21.86h0Z"/><path class="cls-1" d="M131.44,423.01c-33.59,31.43-27.23,69.5,1.73,90.15,15.11-34.85-11.62-39.28-4.39-70.8-3.61,32.26,20.72,35.75,9.81,70.05,38.14-23.62-3.1-67.77-7.14-89.4h0Z"/><path class="cls-1" d="M211.18,425.01c-42.54,17.43-50.15,55.29-30.41,84.88,26.53-27.2,3.1-40.85,21.04-67.73-14.84,28.88,6.67,40.81-15.7,68.95,44.07-8.52,21.15-64.44,25.08-86.1Z"/><path class="cls-1" d="M65.98,599.8c45.56,6.2,71.11-22.72,68.87-58.24-36.57,10.24-23.15,33.83-52.12,48.11,27.31-17.58,14.68-38.66,48.11-51.8-42.38-14.72-50.59,45.17-64.83,61.97l-.03-.04Z"/><path class="cls-1" d="M134.97,616.4c44.86-10.28,58.51-46.35,43.88-78.8-30.61,22.53-9.73,39.83-31.79,63.38,19.35-26.06.08-41.36,26.73-65.46-44.85,1.21-31.4,60.12-38.81,80.88h0Z"/><path class="cls-1" d="M135.87,664.91c45.56,6.2,71.11-22.72,68.87-58.24-36.57,10.24-23.15,33.83-52.12,48.11,27.31-17.58,14.68-38.66,48.11-51.8-42.38-14.72-50.59,45.17-64.83,61.97l-.04-.04Z"/><path class="cls-1" d="M235.36,678.02c34.34-30.57,28.96-68.79.55-90.18-15.97,34.46,10.64,39.56,2.63,70.88,4.39-32.18-19.86-36.26-8.09-70.25-38.73,22.65,1.41,67.81,4.91,89.55h0Z"/><path class="cls-1" d="M163.66,372.03c19.04,41.88,57.14,48.07,85.98,27.23-28.18-25.47-40.93-1.57-68.44-18.48,29.39,13.73,40.54-8.2,69.46,13.11-10.16-43.72-65.18-18.76-87-21.86Z"/><path class="cls-1" d="M204.36,338.68c38.66,24.88,74.05,9.46,87.04-23.62-37.48-6.16-35.28,20.84-67.58,21.5,32.18-4.36,29.63-28.84,65.5-26.61-32.22-31.24-64.95,19.54-84.96,28.73h0Z"/><path class="cls-1" d="M300.03,387.85c-18.13-42.27,2.94-74.6,37.79-81.9-.16,37.99-26.41,31.32-32.45,63.07,9.65-31,33.36-24.41,37.12-60.2,25.47,36.97-30.06,60.83-42.42,79.04h-.04Z"/><path class="cls-1" d="M236.73,435.73c44.97,9.65,59.14,45.56,44.97,78.18-30.89-22.09-10.28-39.68-32.65-62.95,19.7,25.82.63,41.36,27.63,65.1-44.86-.59-32.22-59.69-39.91-80.33h-.04Z"/><path class="cls-1" d="M364.08,434.08c37.48-26.69,36.26-65.26,10.32-89.59-19.62,32.53,6.28,40.5-5.06,70.76,7.89-31.51-15.78-38.22-.43-70.72-40.97,18.33-5.96,67.58-4.83,89.55h0Z"/><path class="cls-1" d="M123.39,260.82c34.22,30.73,71.62,21.07,89.67-9.54-36.03-12.05-38.14,14.99-70.13,10.56,32.45.79,33.83-23.78,68.91-15.9-26.84-35.99-67.23,8.99-88.46,14.91v-.04Z"/><path class="cls-1" d="M108.01,331.93c38.66,24.92,74.06,9.5,87.04-23.62-37.48-6.16-35.28,20.84-67.58,21.54,32.18-4.36,29.63-28.84,65.5-26.61-32.22-31.24-64.95,19.54-84.96,28.73v-.04Z"/><path class="cls-1" d="M502.69,34.85c44.97,9.65,59.14,45.56,44.97,78.18-30.89-22.09-10.28-39.68-32.65-62.94,19.7,25.78.63,41.36,27.63,65.11-44.85-.59-32.22-59.69-39.91-80.33h-.04Z"/><path class="cls-1" d="M448.18,82.53c-33.63,31.36-27.39,69.42,1.49,90.18,15.19-34.81-11.54-39.32-4.24-70.8-3.69,32.26,20.64,35.83,9.65,70.05,38.22-23.55-2.94-67.77-6.91-89.44Z"/><path class="cls-1" d="M57,372.03c19.04,41.88,57.14,48.07,85.98,27.23-28.18-25.47-40.93-1.57-68.44-18.48,29.4,13.73,40.54-8.2,69.46,13.11-10.16-43.72-65.18-18.76-87-21.86Z"/><path class="cls-1" d="M737.72,38.03c-43.6,14.68-53.65,51.92-35.87,82.77,28.22-25.43,5.73-40.58,25.35-66.24-16.68,27.86,4.04,41.17-20.09,67.81,44.54-5.65,25.27-62.94,30.61-84.3v-.04Z"/><path class="cls-1" d="M988.25,248.18c-37.12-27.16-73.35-13.89-88.3,18.41,37.05,8.4,36.46-18.68,68.75-17.43-32.38,2.43-31.32,27-66.99,22.64,30.3,33.12,66.01-15.62,86.53-23.59v-.04Z"/><path class="cls-1" d="M792.27,486.11c-44.43-11.93-56.75-48.5-40.93-80.37,29.75,23.62,8.24,40.15,29.43,64.52-18.37-26.77,1.45-41.32-24.29-66.44,44.78,2.9,29.16,61.26,35.79,82.25v.04Z"/><path class="cls-1" d="M883.2,508.25c-44.78,10.52-72.95-15.86-74.09-51.41,37.4,6.71,26.25,31.47,56.47,42.89-28.84-14.91-18.25-37.09-52.82-47.02,40.81-18.68,54.67,40.15,70.44,55.53h0Z"/><path class="cls-1" d="M936.95,470.02c-44.78,10.52-72.95-15.86-74.09-51.41,37.4,6.71,26.25,31.47,56.47,42.89-28.84-14.91-18.25-37.09-52.82-47.02,40.81-18.68,54.67,40.15,70.44,55.53h0Z"/><path class="cls-1" d="M1015.45,373.17c-37.12,27.16-73.35,13.89-88.3-18.41,37.05-8.4,36.46,18.68,68.75,17.43-32.38-2.43-31.32-27-66.99-22.64,30.3-33.12,66.01,15.62,86.53,23.59v.04Z"/><path class="cls-1" d="M671.67,308.81c-43.6,14.68-53.65,51.92-35.87,82.77,28.22-25.43,5.73-40.58,25.35-66.24-16.68,27.86,4.04,41.17-20.09,67.81,44.54-5.65,25.27-62.95,30.61-84.3v-.04Z"/><path class="cls-1" d="M679.84,270.94c-37.12-27.16-73.35-13.89-88.3,18.41,37.05,8.4,36.46-18.68,68.75-17.43-32.38,2.43-31.32,27-66.99,22.64,30.3,33.12,66.01-15.62,86.53-23.59v-.04Z"/><path class="cls-1" d="M361.05,10.99c-33.63,31.35-27.39,69.42,1.49,90.18,15.19-34.81-11.54-39.32-4.24-70.8-3.69,32.26,20.64,35.83,9.65,70.05,38.22-23.55-2.94-67.77-6.91-89.44Z"/><path class="cls-1" d="M457.56,6.36c-45.91,2.75-65.34,36.11-56.24,70.48,33.87-17.15,16.13-37.68,41.79-57.3-23.39,22.53-6.87,40.77-37.12,60.2,44.47,6.16,40.85-54.16,51.57-73.39h0Z"/><path class="cls-1" d="M584.16,0c43.6,14.68,53.65,51.92,35.87,82.77-28.22-25.43-5.73-40.58-25.35-66.24,16.68,27.86-4.04,41.17,20.09,67.81-44.54-5.65-25.27-62.94-30.61-84.3v-.04Z"/><path class="cls-1" d="M434.01,861.32c-14.95,58-81.63,34.38-128.64,55.45-81.39,36.5-201.4-28.29-293.04,60.35-39.48,38.22,22.8-16.56,88.26-19.9,2.32-.12,10.4-.79,12.12-.31,4.87,1.34-.55,8.83-1.96,11.07-3.77,6-7.77,12.01-12.01,17.7-4.2,5.61-8.75,12.36-12.36,18.45-2.39,4.08-5.81,12.36-7.26,16.91-1.53,4.71-2.94,9.3-4.39,14.01-3.18,10.4-9.65,15.78-15.19,24.49-.47.75-4.98,7.14-2.94,7.34,1.34.12,5.38-6.79,6.24-8.05,5.14-7.5,10.64-11.89,14.05-21,2.55-6.83,4.39-13.89,7.42-20.6,2.86-6.36,4.79-10.24,9.03-15.93,3.96-5.26,7.18-9.38,11.7-14.25,4.12-4.43,7.34-8.63,11.81-12.95,7.02-6.75,16.88-14.48,26.41-16.91,7.46-1.92,12.01-2.98,19.85-2.59,9.42.51,25.59,0,31.83,8.36,5.89,8.44-1.18,26.37-4.36,34.89-5.1,13.66-10.83,27.04-16.8,40.34-1.84,4.12-3.38,7.77-5.41,11.85-3.34,6.67-6.59,11.69-11.07,17.66-8.05,10.71-17.74,20.02-26.45,30.14-1.53,1.77-7.96,9.46-7.61,11.42.2,1.06,1.1,1.06,1.84.23,3.3-3.57,6.04-7.57,9.5-11.26,14.09-15.03,28.65-27.75,40.93-44.62,2.36-3.26,4.08-5.61,6.16-9.03,5.38-8.67,11.97-16.88,17.89-25.27,8.67-12.44,17.35-25.55,25.08-38.58,12.48-20.64,42.23-24.37,64.05-26.45,2.47-.23,13.66-1.38,15.27-1.18,5.38.59,1.21,9.22-.27,11.73-4.79,8.12-10.83,13.85-17.11,20.64-1.45,1.57-8.4,9.77-7.1,11.77,1.88,2.94,7.89-4.63,9.3-6.04,3.41-3.49,7.93-7.1,11.66-10.44,3.53-3.18,6.59-5.81,9.97-9.22,4.95-5.06,8.09-8.52,12.4-14.13,5.65-7.38,6.55-6.2,14.75-7.57,19.98-3.38,41.6-7.46,61.77-8.75,2.36-.16,24.45-1.96,18.25,5.54l-.27.31c-13.73,12.68-27.23,25.59-40.46,38.77-3.41,3.38-8.59,6.08-12.71,8.71-9.26,5.93-17.54,8.99-28.41,10.28-9.38,1.14-18.17,1.38-27.59,1.88-8.32.43-17.62,3.49-24.92,7.42-5.69,3.06-7.96,4.28-13.11,8.36-4.55,3.61-8.36,6.98-12.68,10.75-.98.82-6,4.67-6.12,5.65-.16,1.53,2.39.39,3.06,0,4.2-2.51,9.85-7.93,14.09-11.18,5.45-4.2,8.59-6.4,14.88-9.42,7.26-3.49,12.95-5.38,21.11-6.04,4.63-.39,13.62.31,18.45.67,3.41.27,20.41,1.1,20.21,5.45-.08,2.28-7.26,8.67-9.14,10.52-23.19,22.57-45.56,40.31-72.33,58.51-2.24,1.49-4.47,2.98-6.71,4.51-5.73,3.81-10.55,7.34-15.93,11.58-4.75,3.69-7.06,5.38-12.48,8.2-4.2,2.2-7.34,3.57-11.62,5.45-5.14,2.24-11.93,5.65-16.29,9.18-4.67,3.77-9.42,8.05-14.01,12.01-.23.23-4.71,3.96-3.65,4.28,1.25.39,16.05-11.93,18.33-13.58,8.95-6.55,19.43-8.71,29.79-11.97,6.28-1.96,9.57-2.9,15.46-5.93,4.95-2.51,8.79-4.63,13.97-6.67,8.4-3.26,16.64-6.98,24.76-10.83,7.1-3.34,11.97-7.57,11.7,4.47-.12,5.61-2.04,12.56-2.71,18.37-.82,7.42-.98,15.03.67,22.37,1.57,7.1,4.2,12.48,6.2,19.27,1.65,5.45,1.69,10.44,2.94,15.62.94,3.96,2.94,3.57,2.86.08-.12-5.02-1.18-12.75-2.51-17.62-3.41-12.2-6.52-17.31-4.98-30.81,1.21-10.79,3.73-15.46,7.22-25.16,4-11.03,9.81-22.29,19.54-29.24l1.18-.86c3.49-2.43,17.86-13.15,20.8-6.91,2.24,4.75-2.32,22.09-3.57,27.9-1.38,6.52-2.67,13.15-3.96,19.66-1.49,7.5-2.9,18.25-3.3,25.82-.59,10.68,1.18,17.54,4.28,27.71,1.02,3.38,2.39,6.52,3.41,10.05.43,1.41,2.75,11.81,5.5,9.3,2.59-2.36-2.51-17.74-3.26-21.35-3.26-16.25-2.24-22.88,2.59-38.5,2.08-6.83,4.83-13.42,7.06-20.13,1.73-5.22,3.22-11.62,4.71-17.07,9.89-36.3,22.8-66.2,54.39-89.04,2.86-2.08,16.95-11.42,19.62-11.42,3.65-.04,3.65,6.52,3.41,8.95-.63,6.36-2,12.6-2.98,18.91-.55,3.53-1.14,6.71-1.61,10.32-.79,5.54-1.38,11.5-1.8,17.03-.67,8.59-.27,14.71,2.47,23,1.02,3.06,3.65,8.55,5.06,11.54,3.02,6.4,6.28,12.52,9.46,18.8,1.73,3.45,3.3,7.5,5.02,10.75,1.41,2.71,2.55,1.3,1.73-1.34-1.77-5.65-5.54-12.56-8.16-18.01-1.61-3.26-3.18-6.83-4.71-10.16-1.49-3.3-3.22-7.42-4.51-10.79-2.24-5.96-2.86-12.71-2.28-19.04.63-7.18,2.16-15.15,3.65-22.17.79-3.81,2.28-8.79,3.49-12.56,1.1-3.41,2.71-7.38,4-10.75,1.8-4.71,3.57-8.32,5.02-13.3,1.57-5.34,4.43-13.03,9.22-16.17,18.72-12.28,32.73-26.33,45.68-44.39,18.33.59,29.08,40.27,35.63,55.69,2,5.3-6.98,39.95-8.99,48.39-3.41,14.36-6.44,28.06-8.99,42.62-2.9,16.72-12.12,25.55-22.17,38.18-4.04,5.1-8.4,9.65-12.72,14.48-5.34,5.89-10.4,13.93-12.28,21.66-.51,2.12-3.73,14.6-3.65,15.58.2,1.88,2.04.86,2.9-.71,2.39-4.39,3.49-12.95,5.81-17.97,3.18-6.87,8.4-12.91,13.93-17.97,5.38-4.91,10.4-10.2,15.66-15.15,5.22-4.95,10.48-9.07,15.46-14.36,1.18-1.25,6.16-7.1,7.06-7.61,5.06-2.9,17.5,11.46,20.21,15.38,4.28,6.24,8.36,12.64,9.93,20.13,2.2,10.52,2.39,25.43,2.75,36.42.27,9.5.31,19.04.67,28.49,0,.67.08,5.61,1.73,4.87,1.1-.51.82-8.09.82-9.34.12-15.97.27-32.45-.23-48.39-.31-9.54-.63-16.44-4.55-25.31-2.67-6.04-5.22-11.5-8.59-17.15-1.57-2.67-3.18-5.3-4.75-7.96-5.61-9.42-6.04-18.84-2.75-29.16,1.34-4.2,2.51-8.44,3.69-12.64,2.43-8.87,5.96-24.72,16.28-27.31,8.09-1.8,17.93,3.77,24.8,7.61,6.44,3.57,12.44,9.22,17.74,14.32,7.81,7.57,15.23,18.33,17.93,28.96,2.75,10.99,2.36,22.53-2,33-3.77,9.07-7.06,14.64-8.44,24.76-.35,2.79-1.69,20.72-.86,22.25.67,1.25,1.73.16,2.12-.86,1.02-2.75,1.53-14.32,2.04-18.33,1.69-12.6,5.77-17.54,10.95-28.21,3.77-7.73,5.14-16.36,6.87-24.72,2.39-11.42,7.06-5.02,12.16.08,4.63,4.67,9.22,9.34,13.77,14.05,5.85,6.04,7.85,7.42,10.48,15.7,2.04,6.44,3.41,15.85,2.47,22.6-1.21,8.52-4.39,14.44-7.1,22.33-1.49,4.28-2.67,7.38-3.77,11.85-1.73,7.06-2.47,10.99-2.86,18.33-.2,4.16-.27,7.42-.86,11.58-.12.86-1.49,7.73.79,7.18,2.94-.71,4-19.54,4.43-22.68,1.34-10.36,5.73-21.23,10.55-30.45,2.2-4.2,4.04-7.54,5.96-11.97.86-1.96,3.77-9.73,4.59-10.79,4.59-5.89,14.09,3.26,17.82,6.52,5.61,4.83,9.93,9.89,16.28,13.81,4.43,2.75,9.03,5.02,13.5,7.61,6.83,3.93,12.99,10.16,18.95,15.27.9.79,4.47,3.73,5.41,1.77.86-1.84-4.36-6.59-5.57-7.85-5.45-5.65-11.42-11.26-18.05-15.5-4-2.55-10.75-7.1-13.97-10.48-3.14-3.34-7.18-8.52-9.97-12.29-6.08-8.24-10.2-15.7-15.46-24.41-6.71-11.03-13.54-20.48-21.15-30.85-.86-1.18-4.59-5.96-1.18-6.55,3.41-.63,24.22,5.81,29.24,7.02,7.65,1.88,13.38,4.12,20.33,7.89,1.18.67,6.4,3.69,7.54,2.36.67-.79-2.9-2.36-3.57-2.75-4.75-2.79-8.59-5.14-13.7-7.34-5.69-2.39-12.01-4.16-17.93-6.28-4.08-1.45-8.67-3.26-12.64-4.98-4.71-2.04-8.83-4.87-13.46-7.26-8.59-4.43-16.99-8.91-23.94-15.78-17.93-17.85-74.8-73.46-62.59-100.35l.39-.9c21.94,22.17,38.66,27.67,68.13,33.91,6.83,1.45,21.35,4.12,26.96,6.98,12.36,6.32,24.53,18.13,29.51,31.2,4,10.44,3.69,20.13,4.63,30.96.75,8.71,3.89,13.46,7.77,21,2.2,4.24,4,2.16,2.71-1.96-2-6.2-5.1-9.5-5.73-16.88-.35-4.39-.12-10.24-.16-14.8-.08-10.16-.75-16.88-2.9-26.8-2.75-12.56,3.14-8.79,10.4-4.98,12.79,6.67,25,14.4,37.09,22.25,7.26,4.71,13.03,10.52,19.19,16.48,7.42,7.18,15.38,19.5,19.31,29,3.3,8.05,4.95,26.1,2.63,34.65-1.73,6.28-4.59,11.03-6.08,17.39-1.18,4.98-1.65,8.09-2.2,13.19-.51,4.59-.94,8.36-1.18,13.03-.2,3.61-2.47,9.57-2.28,12.16.12,1.84,1.41,1.92,2.16-.16,1.18-3.14,2.86-8.95,3.06-12.24.35-5.38,1.18-11.18,2-16.56,1.1-7.1,2.86-12.32,6-18.72,3.85-7.77,4.75-13.46,5.22-22.06.27-5.45.16-13.58-.27-18.99-.55-6.67-2.98-15.62,6.91-8.79,5.96,4.12,11.77,8.12,17.9,12.09,9.26,6,17.97,14.8,26.41,22.09,8.71,7.54,16.32,12.4,27.63,15.07,4.87,1.14,10.52,1.49,15.54,2.08,2.24.27,8.2.59,10.36.16,2-.43,1.53-1.96-.67-2.75-3.57-1.25-13.62-2.39-17.85-3.02-11.85-1.73-21.39-6.83-29.82-15.27-7.46-7.42-14.25-15.03-22.05-22.17-3.93-3.57-8-7.1-11.46-11.07-8.55-9.85-17.15-19.7-25.7-29.55-15.7-18.05-31.43-36.1-47.13-54.16l-.43-.51c20.48-13.3,52.62-9.03,75.15-4.04,6.55,1.45,12.16,5.54,17.3,9.69,5.22,4.2,11.89,10.75,15.27,16.52,6.95,11.73,2.71,17.82.23,29.75-1.53,7.46-1.53,12.91,2.08,19.82,2.39,4.59,5.34,9.07,7.77,13.77.63,1.18,2.82,6,3.81,6.36,1.77.63,1.21-2.28.98-3.06-1.84-6.04-6.91-13.07-9.38-18.91-3.3-7.85-2-13.46.35-21.23,2.86-9.42,5.73-13.07,3.73-23.47-.75-3.89-1.96-7.18-3.1-10.87-3.06-9.73,4.79-6.04,10.05-4.2,8.87,3.06,17.74,6.32,26.45,9.65,5.3,2.04,10.55,6.75,12.64,12.05,2.94,7.38,2.79,13.58.98,21.15-1.49,6.24-3.41,15.54-1.69,21.66,1.53,5.5,4.87,13.19,7.65,18.13,3.06,5.38,5.38,8.4,9.14,13.23,3.06,3.93,5.77,8.12,8.59,12.2,1.57,2.32,2.67,1.1,1.88-1.1-1.41-3.89-8.59-13.23-11.34-17.07-4.91-6.95-7.46-13.03-10.12-21-2.63-7.85-2.04-11.42.27-19.19,1.61-5.38,3.61-9.69,5.02-15.23.9-3.61,1.73-10.55,4.91-12.52,2.39-1.49,6.4,1.25,8.55,2.59,5.45,3.3,10.09,7.42,14.71,11.77,6,5.69,10.36,10.87,15.34,17.47,3.65,4.79,7.69,9.77,11.62,14.36,4.59,5.38,8.75,8.87,14.64,12.71.79.51,4.83,3.77,5.02,1.18.2-2.43-6-6.36-7.85-8-8.44-7.61-15.82-19.31-22.13-28.69-7.65-11.42-20.09-23.94-31-32.41-7.18-5.57-12.99-10.32-20.84-15.11-58.59-35.91-150.11-40.15-217.69-46.58-101.09-20.88-141.95-108.43-160.94-200.81-.94-4.51-.94-5.38-.79-9.77,0-.43-.12-3.02-.12-3.02,0,0,.86-1.88,1.02-2.59.98-4.04-.39-9.97,2.59-12.72l.51-.47c2.98-2.32,8.16-4.71,11.7-6.48,5.3-2.63,10.48-3.41,15.42-5.65,3.3-1.53,3.89-3.89,7.96-5.85,3.73-1.77,8.16-3.45,12.05-5.18,9.77-4.32,19.39-8.99,29.04-13.62,18.09-8.71,33.87-14.32,53.25-19.9,21.7-6.24,44.03-11.5,66.05-16.52,44.34-10.09,95.91-52.74,67.93-39.48-52.66,25-127.62,39.48-125.46,28.96,10.48-18.21,33.67-44.58,31.35-54.63-40.42,32.45-28.41,51.41-118.05,83.08-21.19,7.5-43.44,13.11-64.83,13.89-10.79-161.33,123.93-173.81,205.68-273.53,37.55-45.88,153.88-53.88,100.93-52.86-113.26,2.2-63.46,42.34-36.46-150.07l-21.78,62.16c-6.83,14.6-72.84-74.8-40.19-24.53,13.15,20.25,41.95,24.92,18.13,82.41-47.33,114.24-220.94,176.01-233.34,172.44-17.15-4.95-18.76-81.82,34.65-161.68,19.94-42.97,78.33-93.56,71.07-148.85-11.38,37.79-37.52,63.85-45.37,78.13-13.73,24.96-13.73,15.19-69.66-27.31l-.51,6.28,32.26,29.55c19.07,33.44-20.13,73.62-52.66,105.37-43.48,42.42-31.63,6.36-99.91-43.01-48.46-35.04-72.91-71.7-46.11-140.49-2.71-2.47-6.04-1.18-10.75,7.69l-18.33,59.34c-21.11-18.13-71.34-62.94-62.55-94.07,1.3-4.59-64.4-4.63,123.19,190.84,37.91,39.6,70.64,99.05,81.12,152.7,2.63,13.54,3.77,25.47,2.36,39.24-1.34,13.15-1.61,26.49-2.98,39.56-.23,2.24-.55,4.36-.94,6.55-.67,3.81-1.38,6.52-2.36,10.16-2.08,7.77-2.04,12.99-.71,20.76,2.2,12.79,1.8,11.15-1.65.35-2.67-8.4-2.36-13.73-3.1-22.02-.35-4.16-.31-8.4-.27-12.56.04-4.87,4.79-13.77-1.3-16.8-2.36-1.18-6.4.23-9.03.63-4.71.67-11.89-.94-16.84-1.69-33-5.02-64.83-8.87-98.3-8.99-14.71-.04-27.27-.04-42.03-1.88-24.88-3.14-51.64-9.65-76.09-15.85-2.98-.75-6-1.53-8.99-2.28-41.13-10.6-108.04,5.45-77.82,5.77,56.86.63,124.8,21,116.59,29.67-19.46,12.05-54,25.86-58.39,36.15,51.84-11.66,54.08-34.5,144.14-23.39,52.98,6.55,103.96,26.45,101.8,89.91-1.1,32.45,22.09,117.81.39,202.11l.18-.25Z"/><path class="cls-1" d="M913.85,540.19c-10.36,44.82-46.47,58.43-78.84,43.76,22.57-30.57,39.83-9.65,63.46-31.67-26.1,19.31-41.36,0-65.54,26.6,1.3-44.85,60.16-31.28,80.92-38.66v-.04Z"/><path class="cls-1" d="M799.61,488.12c39.12,24.14,40.46,62.71,16.21,88.73-21.74-31.16,3.61-40.81-9.69-70.25,9.93,30.93-13.23,39.16,4.24,70.6-42.07-15.58-10.4-67.03-10.72-89.04l-.04-.04Z"/><path class="cls-1" d="M721.86,505.86c45.17,8.71,60.12,44.27,46.66,77.19-31.4-21.43-11.1-39.44-34.02-62.2,20.29,25.35,1.53,41.32,29,64.48-44.85.35-33.52-58.98-41.64-79.43v-.03Z"/><path class="cls-1" d="M898.82,648.43c-43.44,15.11-74.21-8.2-79.04-43.44,37.87,2.82,29.4,28.57,60.63,36.81-30.26-11.77-22.02-34.97-57.41-41.25,38.66-22.8,58.55,34.26,75.86,47.88h-.04Z"/><path class="cls-1" d="M841.17,692.7c-45.99-1.18-66.52-33.87-58.59-68.52,34.46,16.01,17.39,37.09,43.72,55.84-24.14-21.74-8.24-40.5-39.16-58.87,44.23-7.69,42.66,52.7,54.04,71.58v-.04Z"/><path class="cls-1" d="M792.23,692.22c-43.44,15.11-74.21-8.2-79.04-43.44,37.87,2.82,29.4,28.57,60.59,36.81-30.22-11.81-22.02-35-57.41-41.28,38.66-22.8,58.55,34.26,75.86,47.88v.03Z"/><path class="cls-1" d="M703.42,741.32c-39.72-23.19-41.99-61.69-18.41-88.3,22.49,30.61-2.59,40.89,11.46,69.97-10.68-30.65,12.28-39.48-5.96-70.44,42.46,14.52,12.05,66.75,12.91,88.77h0Z"/><path class="cls-1" d="M655.58,492.36c-16.68,42.85,5.5,74.45,40.54,80.57-1.45-37.95-27.47-30.41-34.57-61.93,10.68,30.65,34.14,23.27,39.16,58.87,24.22-37.79-32.1-59.73-45.09-77.55l-.04.04Z"/><path class="cls-1" d="M611.12,532.62c-16.68,42.85,5.5,74.45,40.54,80.57-1.45-37.95-27.47-30.41-34.57-61.93,10.68,30.65,34.14,23.27,39.16,58.87,24.22-37.79-32.1-59.73-45.09-77.55l-.04.04Z"/></svg>